<svg width="93" height="93" viewBox="0 0 93 93" fill="none" xmlns="http://www.w3.org/2000/svg">
<rect x="1" y="1" width="91" height="91" fill="#222222" stroke="#FF695C" stroke-width="2"/>
<rect x="5" y="5" width="83" height="83" fill="#222222" stroke="#6C0808" stroke-width="6"/>
<path fill-rule="evenodd" clip-rule="evenodd" d="M74.2559 74.48H54.5759V72.752H60.8159L54.0959 54.224L53.401 52.277L53.1359 51.536L43.6319 25.328L34.0319 51.536L33.7679 52.208L32.9759 54.224L26.2559 72.752H32.4959V74.48H17.9999V72.752H22.5519C23.4479 72.752 24.0559 72.304 24.3759 71.408L45.4959 14H47.7599L68.8799 71.408C69.1999 72.304 69.8079 72.752 70.7039 72.752H74.2559V74.48Z" fill="#FF695C"/>
<path d="M33.7679 52.208L32.9759 54.224H54.0959L53.401 52.277L33.7679 52.208Z" fill="#FF695C"/>
</svg>
