<svg width="96" height="94" viewBox="0 0 96 94" fill="none" xmlns="http://www.w3.org/2000/svg">
<rect x="2.32556" y="1.11432" width="91" height="91" fill="#222222" stroke="url(#paint0_linear_39_2)" stroke-width="2"/>
<rect x="6.32556" y="5.11432" width="83" height="83" fill="#222222" stroke="#6C0808" stroke-width="6"/>
<mask id="mask0_39_2" style="mask-type:alpha" maskUnits="userSpaceOnUse" x="9" y="8" width="78" height="78">
<rect x="9.32111" y="8.0955" width="77.02" height="76.9979" fill="#D9D9D9"/>
</mask>
<g mask="url(#mask0_39_2)">
<mask id="mask1_39_2" style="mask-type:luminance" maskUnits="userSpaceOnUse" x="59" y="11" width="34" height="17">
<path d="M91.4601 27.3085L91.4601 11.8544L60.5507 11.8544L60.5507 27.3085L91.4601 27.3085Z" fill="white" stroke="white" stroke-width="1.25"/>
</mask>
<g mask="url(#mask1_39_2)">
<path d="M90.6777 22.9796L90.6558 21.896L90.522 21.0359L90.2335 20.0118L90.0072 19.4359L89.756 18.9112L89.188 17.9662L88.437 17.0147L87.5681 16.1655L86.4654 15.3407L85.2821 14.6804L84.073 14.1914L82.9047 13.867L81.5344 13.6488L80.0313 13.5952L78.57 13.7194L76.9317 14.0632L75.1988 14.6739L73.7415 15.4043L72.1971 16.4274L70.6284 17.7948L69.1094 19.5537L67.8729 21.4811L66.9518 23.4447L66.2908 25.461L65.8382 27.7516" stroke="#2D2D2D" stroke-width="1.25" stroke-miterlimit="10" stroke-linecap="round" stroke-linejoin="round"/>
</g>
<mask id="mask2_39_2" style="mask-type:luminance" maskUnits="userSpaceOnUse" x="60" y="27" width="10" height="4">
<path d="M68.4825 30.2341L68.4825 28.3041L60.716 28.3041L60.716 30.2341L68.4825 30.2341Z" fill="white" stroke="white" stroke-width="1.25"/>
</mask>
<g mask="url(#mask2_39_2)">
<path d="M65.8542 27.7683L65.6955 30.7808" stroke="#2D2D2D" stroke-width="1.25" stroke-miterlimit="10" stroke-linecap="round" stroke-linejoin="round"/>
</g>
<mask id="mask3_39_2" style="mask-type:luminance" maskUnits="userSpaceOnUse" x="59" y="30" width="29" height="26">
<path d="M87.2647 54.6956L87.2647 31.357L59.8115 31.357L59.8115 54.6956L87.2647 54.6956Z" fill="white" stroke="white" stroke-width="1.25"/>
</mask>
<g mask="url(#mask3_39_2)">
<path d="M65.7114 30.859L65.7552 32.1633L66.163 34.7535L66.9957 37.5693L68.1724 40.2057L69.5885 42.5539L71.3308 44.7988L73.2382 46.753L75.645 48.7127L78.5562 50.5372L81.6419 51.9726L84.7998 53.0116L87.8189 53.6526" stroke="#2D2D2D" stroke-width="1.25" stroke-miterlimit="10" stroke-linecap="round" stroke-linejoin="round"/>
</g>
<path d="M73.5172 27.0967L73.5117 27.0967" stroke="#393939" stroke-width="1.75" stroke-miterlimit="10" stroke-linecap="round" stroke-linejoin="round"/>
<path d="M73.5148 27.0984L73.5148 27.1004L73.5118 27.1004L73.5118 27.0994L73.5108 27.0994L73.5108 27.0964L73.5118 27.0964L73.5118 27.0954L73.5178 27.0954L73.5189 27.0964" stroke="#393939" stroke-width="1.75" stroke-miterlimit="10" stroke-linecap="round" stroke-linejoin="round"/>
<path d="M73.5151 27.0972L73.5156 27.0976L73.5156 27.1008L73.5151 27.1008L73.5151 27.1013L73.5146 27.1022L73.5142 27.1022L73.5137 27.1026L73.5124 27.1031L73.5101 27.1031L73.5097 27.1026L73.5092 27.1026L73.5074 27.1008L73.5069 27.1008L73.506 27.099L73.506 27.0986L73.5056 27.0976L73.5056 27.094L73.506 27.0927L73.5069 27.0909L73.5078 27.0904L73.5088 27.0891L73.5097 27.0881L73.5106 27.0877L73.511 27.0872L73.5124 27.0868L73.5137 27.0868L73.5146 27.0863L73.5165 27.0863" stroke="#393939" stroke-width="1.75" stroke-miterlimit="10" stroke-linecap="round" stroke-linejoin="round"/>
<path d="M73.515 27.0861L73.5169 27.0861L73.5177 27.0865L73.5189 27.0865L73.5201 27.0873L73.5216 27.0881L73.5232 27.0893L73.5256 27.0916L73.5271 27.0936L73.5279 27.0956L73.5283 27.0971L73.5287 27.0991L73.5287 27.1038L73.5283 27.1069L73.5275 27.1089L73.5244 27.1136L73.5224 27.1164L73.5201 27.1187L73.5169 27.1203L73.5146 27.1219L73.511 27.123L73.5083 27.1238L73.5008 27.1238L73.4965 27.1234L73.4926 27.1223L73.489 27.1203L73.4851 27.1183L73.4823 27.116L73.4784 27.1124L73.4761 27.1093L73.4729 27.105L73.4709 27.1011L73.4694 27.096L73.4682 27.0905L73.4674 27.0846L73.4678 27.0787L73.4686 27.0716L73.4706 27.0649L73.4733 27.0587L73.4764 27.0536L73.4808 27.0477L73.4863 27.0422L73.493 27.0367L73.5012 27.0323L73.5095 27.0284L73.5177 27.0265" stroke="#393939" stroke-width="1.75" stroke-miterlimit="10" stroke-linecap="round" stroke-linejoin="round"/>
<path d="M73.5179 27.0264L73.5282 27.0249L73.5397 27.0249L73.546 27.0256L73.5515 27.0264L73.5583 27.028L73.5642 27.03L73.5749 27.0351L73.5855 27.0422L73.597 27.0513L73.6061 27.0624L73.6136 27.0734L73.6195 27.0853L73.6247 27.1003L73.6279 27.1153L73.629 27.1323L73.6286 27.1422L73.6279 27.152L73.6235 27.1698L73.6176 27.1872L73.6128 27.1967L73.6069 27.2069L73.5942 27.2243L73.5772 27.2413L73.5551 27.2579L73.5334 27.2697L73.5112 27.278L73.4994 27.2808L73.4851 27.2836L73.4701 27.2855L73.4551 27.2863L73.4278 27.2844L73.4017 27.2796L73.3728 27.2705L73.3436 27.2559L73.3191 27.2405L73.2942 27.2196L73.2732 27.1967L73.255 27.173L73.2372 27.1418L73.2218 27.1042L73.2119 27.0655L73.2064 27.0276L73.206 26.9854L73.2119 26.9384L73.2234 26.8933L73.2396 26.8523L73.2661 26.8049L73.3033 26.7563L73.346 26.7144" stroke="#393939" stroke-width="1.75" stroke-miterlimit="10" stroke-linecap="round" stroke-linejoin="round"/>
<path d="M73.3459 26.7144L73.393 26.6793L73.421 26.6627L73.4534 26.6465L73.4835 26.6339L73.5167 26.6228L73.5839 26.6078L73.6495 26.6019L73.6875 26.6023L73.729 26.6054L73.8045 26.6196L73.8512 26.6339L73.8951 26.6508L73.9761 26.6935L74.0402 26.7393L74.1054 26.7994L74.1612 26.8653L74.2066 26.9336L74.2509 27.0233L74.2715 27.0774L74.2873 27.1307L74.307 27.233L74.3142 27.3484L74.311 27.4127L74.3047 27.4736L74.292 27.5411L74.2726 27.6122L74.2268 27.7327L74.1932 27.7994L74.156 27.861L74.0754 27.9704L73.9828 28.0672L73.8583 28.1675L73.7278 28.2469L73.6017 28.3038L73.4507 28.352L73.2819 28.3832L73.1142 28.3934L72.9525 28.3848L72.8015 28.3595L72.6331 28.3125L72.4571 28.241L72.2824 28.1438L72.1033 28.0119L71.9443 27.8622L71.8127 27.7042L71.6763 27.4941L71.6138 27.3728L71.5557 27.2374L71.4727 26.9712L71.4264 26.7077" stroke="#393939" stroke-width="1.75" stroke-miterlimit="10" stroke-linecap="round" stroke-linejoin="round"/>
<path d="M71.4266 26.7078L71.4123 26.4203L71.44 26.0948L71.5104 25.7812L71.6151 25.4893L71.7591 25.2049L71.9231 24.9549L72.1536 24.6812L72.4098 24.443L72.7332 24.21L73.1199 24.0034L73.4833 23.8648L73.9138 23.759L74.408 23.7052L74.6963 23.7052L74.9643 23.725L75.4945 23.8206L76.0002 23.9829L76.4264 24.1796L76.8842 24.4596L77.3397 24.8218L77.7358 25.2271L78.0502 25.6299L78.3427 26.1015L78.6116 26.6711L78.8029 27.2374L78.9441 27.8998" stroke="#393939" stroke-width="1.75" stroke-miterlimit="10" stroke-linecap="round" stroke-linejoin="round"/>
<path d="M78.9441 27.8996L78.9974 28.5166" stroke="#393939" stroke-width="1.75" stroke-miterlimit="10" stroke-linecap="round" stroke-linejoin="round"/>
<mask id="mask4_39_2" style="mask-type:luminance" maskUnits="userSpaceOnUse" x="54" y="24" width="27" height="14">
<path d="M79.2412 25.4582L79.2412 36.9864L55.4274 36.9864L55.4274 25.4582L79.2412 25.4582Z" fill="white" stroke="white" stroke-width="1.75"/>
</mask>
<g mask="url(#mask4_39_2)">
<path d="M78.9974 28.521L78.98 29.3825L78.8737 30.0661L78.6444 30.8802L78.4645 31.3379L78.2648 31.755L77.8133 32.5063L77.2163 33.2626L76.5256 33.9376L75.6491 34.5933L74.7085 35.1182L73.7473 35.5068L72.8186 35.7647L71.7294 35.9381L70.5346 35.9808L69.373 35.882L68.0706 35.6087L66.6932 35.1233L65.5348 34.5427L64.3071 33.7295L63.0601 32.6425L61.8527 31.2443L60.8698 29.7123L60.1376 28.1513L59.6121 26.5486L59.2523 24.7278" stroke="#393939" stroke-width="1.75" stroke-miterlimit="10" stroke-linecap="round" stroke-linejoin="round"/>
</g>
<mask id="mask5_39_2" style="mask-type:luminance" maskUnits="userSpaceOnUse" x="54" y="22" width="8" height="3">
<path d="M60.9761 23.1326L60.9761 23.9103L55.5589 23.9103L55.5589 23.1326L60.9761 23.1326Z" fill="white" stroke="white" stroke-width="1.75"/>
</mask>
<g mask="url(#mask5_39_2)">
<path d="M59.265 24.7145L59.1389 22.3198" stroke="#393939" stroke-width="1.75" stroke-miterlimit="10" stroke-linecap="round" stroke-linejoin="round"/>
</g>
<mask id="mask6_39_2" style="mask-type:luminance" maskUnits="userSpaceOnUse" x="53" y="2" width="24" height="21">
<path d="M75.9062 3.68799L75.9062 21.4836L54.8398 21.4836L54.8398 3.68799L75.9062 3.68799Z" fill="white" stroke="white" stroke-width="1.75"/>
</mask>
<g mask="url(#mask6_39_2)">
<path d="M59.1515 22.2577L59.1863 21.2209L59.5105 19.1619L60.1724 16.9236L61.1078 14.8279L62.2334 12.9613L63.6184 11.1768L65.1346 9.62344L67.0478 8.06568L69.3619 6.61536L71.8148 5.4743L74.325 4.64842L76.7249 4.13892" stroke="#393939" stroke-width="1.75" stroke-miterlimit="10" stroke-linecap="round" stroke-linejoin="round"/>
</g>
</g>
<path fill-rule="evenodd" clip-rule="evenodd" d="M75.5815 74.5944H55.9015V72.8664H62.1415L55.4215 54.3384L54.7266 52.3913L54.4615 51.6504L44.9575 25.4424L35.3575 51.6504L35.0935 52.3224L34.3015 54.3384L27.5815 72.8664H33.8215V74.5944H19.3255V72.8664H23.8775C24.7735 72.8664 25.3815 72.4184 25.7015 71.5224L46.8215 14.1143H49.0855L70.2055 71.5224C70.5255 72.4184 71.1335 72.8664 72.0295 72.8664H75.5815V74.5944Z" fill="#E78830"/>
<path d="M35.0935 52.3224L34.3015 54.3384H55.4215L54.7266 52.3913L35.0935 52.3224Z" fill="#E78830"/>
<path d="M77.3447 56.2894V56.2881L77.3444 56.2875V56.2867L77.3439 56.2859L77.3433 56.2848L77.3425 56.2838L77.3409 56.2821L77.3395 56.281L77.3382 56.2805L77.3371 56.2802L77.3357 56.28H77.3325L77.3303 56.2802L77.329 56.2808L77.3257 56.2829L77.3238 56.2843L77.3222 56.2859L77.3211 56.2881L77.32 56.2897L77.3192 56.2922L77.3187 56.294V56.2992L77.319 56.3022L77.3198 56.3049L77.3211 56.3073L77.3225 56.31L77.3241 56.3119L77.3265 56.3146L77.3287 56.3163L77.3317 56.3184L77.3344 56.3198L77.3379 56.3209L77.3417 56.3217L77.3458 56.3222L77.3498 56.3219L77.3547 56.3214L77.3593 56.3201L77.3636 56.3182L77.3671 56.316L77.3712 56.313L77.375 56.3092L77.3788 56.3046L77.3817 56.2989L77.3845 56.2932L77.3858 56.2875" stroke="#AB6728" stroke-width="2" stroke-miterlimit="10" stroke-linecap="round" stroke-linejoin="round"/>
<path d="M77.3858 56.2873L77.3869 56.2802V56.2723L77.3863 56.268L77.3858 56.2641L77.3847 56.2595L77.3833 56.2554L77.3798 56.248L77.3749 56.2407L77.3686 56.2328L77.361 56.2265L77.3534 56.2213L77.3452 56.2172L77.3349 56.2137L77.3245 56.2115L77.3128 56.2107L77.306 56.211L77.2992 56.2115L77.2869 56.2145L77.2749 56.2186L77.2684 56.2219L77.2613 56.226L77.2493 56.2347L77.2376 56.2464L77.2262 56.2617L77.218 56.2767L77.2123 56.2919L77.2104 56.3001L77.2085 56.3099L77.2071 56.3203L77.2066 56.3307L77.2079 56.3495L77.2112 56.3675L77.2175 56.3874L77.2275 56.4076L77.2382 56.4245L77.2526 56.4416L77.2684 56.4561L77.2847 56.4686L77.3063 56.4809L77.3321 56.4915L77.3588 56.4984L77.385 56.5022L77.4141 56.5024L77.4465 56.4984L77.4776 56.4904L77.5059 56.4793L77.5386 56.461L77.5721 56.4354L77.601 56.4059" stroke="#AB6728" stroke-width="2" stroke-miterlimit="10" stroke-linecap="round" stroke-linejoin="round"/>
<path d="M77.6009 56.4059L77.6252 56.3735L77.6366 56.3541L77.6478 56.3318L77.6565 56.3111L77.6641 56.2882L77.6745 56.2418L77.6786 56.1965L77.6783 56.1704L77.6761 56.1417L77.6663 56.0897L77.6565 56.0575L77.6448 56.0272L77.6154 55.9713L77.5838 55.9272L77.5424 55.8822L77.4969 55.8437L77.4498 55.8124L77.3879 55.7818L77.3506 55.7676L77.3138 55.7567L77.2433 55.7431L77.1638 55.7382L77.1194 55.7404L77.0774 55.7447L77.0308 55.7535L76.9818 55.7668L76.8987 55.7985L76.8527 55.8216L76.8102 55.8473L76.7347 55.9029L76.668 55.9667L76.5988 56.0526L76.5441 56.1426L76.5049 56.2295L76.4716 56.3337L76.4501 56.4501L76.443 56.5657L76.449 56.6772L76.4664 56.7814L76.4989 56.8976L76.5482 57.0189L76.6152 57.1394L76.7061 57.2629L76.8094 57.3725L76.9183 57.4633L77.0632 57.5574L77.1469 57.6005L77.2403 57.6406L77.4239 57.6978L77.6056 57.7297" stroke="#AB6728" stroke-width="2" stroke-miterlimit="10" stroke-linecap="round" stroke-linejoin="round"/>
<path d="M77.6055 57.7297L77.8038 57.7395L78.0283 57.7204L78.2446 57.6719L78.4458 57.5996L78.642 57.5004L78.8144 57.3872L79.0031 57.2283L79.1674 57.0516L79.3281 56.8285L79.4706 56.5619L79.5662 56.3113L79.6392 56.0144L79.6762 55.6735V55.4748L79.6626 55.2899L79.5967 54.9243L79.4847 54.5755L79.3491 54.2816L79.156 53.9659L78.9062 53.6518L78.6267 53.3786L78.3489 53.1618L78.0237 52.96L77.6309 52.7746L77.2403 52.6427L76.7835 52.5453" stroke="#AB6728" stroke-width="2" stroke-miterlimit="10" stroke-linecap="round" stroke-linejoin="round"/>
<path d="M76.3552 52.5085L75.7611 52.5205L75.2896 52.5939L74.7282 52.752L74.4125 52.8761L74.1249 53.0138L73.6068 53.3251L73.0852 53.7369L72.6197 54.2132L72.1675 54.8177L71.8055 55.4663L71.5375 56.1292L71.3596 56.7697L71.24 57.5208L71.2106 58.3448L71.2787 59.1459L71.4672 60.044L71.802 60.994L72.2024 61.7929L72.7632 62.6395L73.5128 63.4995L74.4771 64.3322L75.5336 65.01L76.6101 65.515L77.7154 65.8773L78.9711 66.1255" stroke="#AB6728" stroke-width="2" stroke-miterlimit="10" stroke-linecap="round" stroke-linejoin="round"/>
<mask id="mask7_39_2" style="mask-type:luminance" maskUnits="userSpaceOnUse" x="78" y="64" width="3" height="6">
<mask id="path-30-inside-1_39_2" fill="white">
<path d="M80.6746 64.3332H78.9313V69.276H80.6746V64.3332Z"/>
</mask>
<path d="M80.6746 64.3332H78.9313V69.276H80.6746V64.3332Z" fill="white"/>
<path d="M80.6746 64.3332V62.3332H82.6746V64.3332H80.6746ZM78.9313 64.3332H76.9313V62.3332H78.9313V64.3332ZM78.9313 69.276V71.276H76.9313V69.276H78.9313ZM80.6746 69.276H82.6746V71.276H80.6746V69.276ZM80.6746 66.3332H78.9313V62.3332H80.6746V66.3332ZM80.9313 64.3332V69.276H76.9313V64.3332H80.9313ZM78.9313 67.276H80.6746V71.276H78.9313V67.276ZM78.6746 69.276V64.3332H82.6746V69.276H78.6746Z" fill="white" mask="url(#path-30-inside-1_39_2)"/>
</mask>
<g mask="url(#mask7_39_2)">
<path d="M78.9801 66.1167L80.6316 66.2037" stroke="#AB6728" stroke-width="2" stroke-miterlimit="10" stroke-linecap="round" stroke-linejoin="round"/>
</g>
<mask id="mask8_39_2" style="mask-type:luminance" maskUnits="userSpaceOnUse" x="80" y="54" width="15" height="16">
<path d="M93.0841 55.0369H81.6047V68.7718H93.0841V55.0369Z" fill="white" stroke="white" stroke-width="2"/>
</mask>
<g mask="url(#mask8_39_2)">
<path d="M80.6747 66.195L81.3897 66.171L82.8096 65.9474L84.3532 65.491L85.7985 64.8459L87.0858 64.0696L88.3164 63.1145L89.3877 62.0688L90.462 60.7494L91.4622 59.1535L92.2491 57.4619L92.8186 55.7308L93.17 54.0758" stroke="#AB6728" stroke-width="2" stroke-miterlimit="10" stroke-linecap="round" stroke-linejoin="round"/>
</g>
<mask id="mask9_39_2" style="mask-type:luminance" maskUnits="userSpaceOnUse" x="88" y="52" width="8" height="3">
<mask id="path-35-inside-2_39_2" fill="white">
<path d="M95.0363 52.4736H88.9036V54.1385H95.0363V52.4736Z"/>
</mask>
<path d="M95.0363 52.4736H88.9036V54.1385H95.0363V52.4736Z" fill="white"/>
<path d="M95.0363 52.4736V50.4736H97.0363V52.4736H95.0363ZM88.9036 52.4736H86.9036V50.4736H88.9036V52.4736ZM88.9036 54.1385V56.1385H86.9036V54.1385H88.9036ZM95.0363 54.1385H97.0363V56.1385H95.0363V54.1385ZM95.0363 54.4736H88.9036V50.4736H95.0363V54.4736ZM90.9036 52.4736V54.1385H86.9036V52.4736H90.9036ZM88.9036 52.1385H95.0363V56.1385H88.9036V52.1385ZM93.0363 54.1385V52.4736H97.0363V54.1385H93.0363Z" fill="white" mask="url(#path-35-inside-2_39_2)"/>
</mask>
<g mask="url(#mask9_39_2)">
<path d="M93.17 54.0758L93.3307 52.5085" stroke="#AB6728" stroke-width="2" stroke-miterlimit="10" stroke-linecap="round" stroke-linejoin="round"/>
</g>
<mask id="mask10_39_2" style="mask-type:alpha" maskUnits="userSpaceOnUse" x="59" y="37" width="35" height="45">
<rect x="59.0923" y="37.3557" width="34.3823" height="43.9146" fill="#D9D9D9"/>
</mask>
<g mask="url(#mask10_39_2)">
<path d="M76.3859 52.7332L75.6202 52.7487L75.0125 52.8432L74.2889 53.047L73.882 53.2069L73.5112 53.3844L72.8434 53.7858L72.1711 54.3165L71.5711 54.9304L70.9883 55.7096L70.5217 56.5457L70.1762 57.4001L69.9469 58.2256L69.7928 59.1938L69.7549 60.2559L69.8427 61.2885L70.0856 62.4461L70.5171 63.6706L71.0332 64.7003L71.7561 65.7915L72.7223 66.9L73.9652 67.9733L75.327 68.847L76.7146 69.4979L78.1393 69.965L79.7578 70.2848" stroke="#AB6728" stroke-miterlimit="10" stroke-linecap="round" stroke-linejoin="round"/>
<mask id="mask11_39_2" style="mask-type:luminance" maskUnits="userSpaceOnUse" x="79" y="67" width="3" height="8">
<path d="M81.4535 68.4746H80.2065V73.8457H81.4535V68.4746Z" fill="white" stroke="white"/>
</mask>
<g mask="url(#mask11_39_2)">
<path d="M79.7693 70.2735L81.898 70.3856" stroke="#AB6728" stroke-miterlimit="10" stroke-linecap="round" stroke-linejoin="round"/>
</g>
<mask id="mask12_39_2" style="mask-type:luminance" maskUnits="userSpaceOnUse" x="81" y="54" width="19" height="21">
<path d="M98.7379 55.2032H82.3636V74.4848H98.7379V55.2032Z" fill="white" stroke="white"/>
</mask>
<g mask="url(#mask12_39_2)">
<path d="M81.9537 70.3744L82.8754 70.3434L84.7056 70.0553L86.6952 69.4669L88.5581 68.6354L90.2174 67.6348L91.8036 66.4037L93.1844 65.0559L94.5691 63.3553L95.8583 61.2983L96.8726 59.1179L97.6068 56.8866L98.0597 54.7533" stroke="#AB6728" stroke-miterlimit="10" stroke-linecap="round" stroke-linejoin="round"/>
</g>
</g>
<path d="M25.2923 37.0604V37.0623L25.2927 37.0631V37.0643L25.2935 37.0655L25.2943 37.0671L25.2955 37.0687L25.2978 37.071L25.2998 37.0726L25.3018 37.0734L25.3034 37.0738L25.3053 37.0742H25.3101L25.3132 37.0738L25.3152 37.073L25.3199 37.0698L25.3227 37.0679L25.3251 37.0655L25.3267 37.0623L25.3282 37.06L25.3294 37.0564L25.3302 37.0536V37.0461L25.3298 37.0418L25.3286 37.0378L25.3267 37.0343L25.3247 37.0303L25.3223 37.0276L25.3188 37.0236L25.3156 37.0212L25.3113 37.0181L25.3073 37.0161L25.3022 37.0145L25.2967 37.0133L25.2907 37.0126L25.2848 37.013L25.2777 37.0137L25.271 37.0157L25.2647 37.0185L25.2596 37.0216L25.2536 37.026L25.2481 37.0315L25.2426 37.0382L25.2383 37.0465L25.2343 37.0548L25.2323 37.0631" stroke="#C69152" stroke-width="2" stroke-miterlimit="10" stroke-linecap="round" stroke-linejoin="round"/>
<path d="M25.2322 37.0625L25.2307 37.0726V37.0839L25.2315 37.0901L25.2322 37.0956L25.2338 37.1022L25.2357 37.1081L25.2408 37.1186L25.2478 37.1291L25.2568 37.1404L25.2677 37.1494L25.2786 37.1568L25.2903 37.1627L25.3051 37.1677L25.3199 37.1709L25.3366 37.172L25.3464 37.1716L25.3561 37.1709L25.3736 37.1666L25.3908 37.1607L25.4001 37.156L25.4102 37.1502L25.4274 37.1377L25.4441 37.1209L25.4605 37.0991L25.4722 37.0777L25.4804 37.0558L25.4831 37.0441L25.4858 37.0301L25.4878 37.0153L25.4885 37.0005L25.4866 36.9736L25.4819 36.9478L25.473 36.9194L25.4585 36.8905L25.4434 36.8663L25.4227 36.8418L25.4001 36.8211L25.3768 36.8032L25.346 36.7856L25.309 36.7704L25.2708 36.7607L25.2334 36.7552L25.1917 36.7548L25.1454 36.7607L25.101 36.772L25.0605 36.788L25.0137 36.8141L24.9658 36.8507L24.9245 36.8928" stroke="#C69152" stroke-width="2" stroke-miterlimit="10" stroke-linecap="round" stroke-linejoin="round"/>
<path d="M24.9246 36.8928L24.89 36.9392L24.8736 36.9669L24.8576 36.9989L24.8452 37.0285L24.8343 37.0613L24.8195 37.1276L24.8136 37.1923L24.814 37.2297L24.8171 37.2707L24.8312 37.3451L24.8452 37.3911L24.8619 37.4344L24.904 37.5144L24.9492 37.5775L25.0084 37.6419L25.0734 37.6968L25.1408 37.7417L25.2292 37.7853L25.2826 37.8056L25.3352 37.8212L25.4361 37.8407L25.5498 37.8477L25.6133 37.8446L25.6733 37.8384L25.7399 37.8259L25.81 37.8068L25.9288 37.7616L25.9946 37.7284L26.0554 37.6918L26.1633 37.6122L26.2587 37.521L26.3576 37.3982L26.4359 37.2695L26.492 37.1451L26.5395 36.9962L26.5703 36.8297L26.5804 36.6644L26.5719 36.5049L26.5469 36.356L26.5006 36.1899L26.4301 36.0163L26.3343 35.844L26.2042 35.6674L26.0566 35.5106L25.9008 35.3808L25.6935 35.2463L25.574 35.1847L25.4403 35.1274L25.1778 35.0455L24.918 34.9999" stroke="#C69152" stroke-width="2" stroke-miterlimit="10" stroke-linecap="round" stroke-linejoin="round"/>
<path d="M24.918 34.9999L24.6345 34.9858L24.3135 35.0131L24.0042 35.0825L23.7164 35.1859L23.4359 35.3278L23.1894 35.4896L22.9194 35.7169L22.6846 35.9696L22.4548 36.2885L22.251 36.6698L22.1143 37.0282L22.0099 37.4528L21.957 37.9401V38.2244L21.9764 38.4887L22.0707 39.0116L22.2308 39.5103L22.4248 39.9306L22.7009 40.3821L23.0581 40.8313L23.4578 41.222L23.855 41.5319L24.3201 41.8205L24.8818 42.0856L25.4404 42.2743L26.0936 42.4135" stroke="#C69152" stroke-width="2" stroke-miterlimit="10" stroke-linecap="round" stroke-linejoin="round"/>
<path d="M26.0934 42.4135L26.7018 42.4661" stroke="#C69152" stroke-width="2" stroke-miterlimit="10" stroke-linecap="round" stroke-linejoin="round"/>
<mask id="mask13_39_2" style="mask-type:luminance" maskUnits="userSpaceOnUse" x="22" y="18" width="14" height="26">
<path d="M23.8228 42.5695H34.9174V19.359H23.8228V42.5695Z" fill="white" stroke="white" stroke-width="2"/>
</mask>
<g mask="url(#mask13_39_2)">
<path d="M26.7062 42.4661L27.5557 42.449L28.2299 42.3441L29.0327 42.118L29.4842 41.9406L29.8955 41.7437L30.6363 41.2984L31.3822 40.7096L32.0479 40.0285L32.6945 39.164L33.2122 38.2365L33.5954 37.2886L33.8498 36.3727L34.0208 35.2985L34.0628 34.1202L33.9655 32.9747L33.6959 31.6904L33.2172 30.3319L32.6446 29.1895L31.8426 27.9789L30.7707 26.7491L29.3918 25.5583L27.8809 24.589L26.3416 23.8669L24.761 23.3487L22.9653 22.9939" stroke="#C69152" stroke-width="2" stroke-miterlimit="10" stroke-linecap="round" stroke-linejoin="round"/>
</g>
<mask id="mask14_39_2" style="mask-type:luminance" maskUnits="userSpaceOnUse" x="20" y="18" width="4" height="8">
<path d="M21.5293 24.5569H22.0221V19.4887H21.5293V24.5569Z" fill="white" stroke="white" stroke-width="2"/>
</mask>
<g mask="url(#mask14_39_2)">
<path d="M22.9524 23.0064L20.5908 22.882" stroke="#C69152" stroke-width="2" stroke-miterlimit="10" stroke-linecap="round" stroke-linejoin="round"/>
</g>
<mask id="mask15_39_2" style="mask-type:luminance" maskUnits="userSpaceOnUse" x="1" y="17" width="20" height="24">
<path d="M2.35345 39.2806H19.629V18.7796H2.35345V39.2806Z" fill="white" stroke="white" stroke-width="2"/>
</mask>
<g mask="url(#mask15_39_2)">
<path d="M20.5293 22.8945L19.5068 22.9288L17.4763 23.2485L15.269 23.9012L13.2022 24.8237L11.3614 25.9338L9.60162 27.2996L8.06968 28.7949L6.53345 30.6817L5.10317 32.9638L3.97788 35.3828L3.16342 37.8583L2.66095 40.225" stroke="#C69152" stroke-width="2" stroke-miterlimit="10" stroke-linecap="round" stroke-linejoin="round"/>
</g>
<mask id="mask16_39_2" style="mask-type:luminance" maskUnits="userSpaceOnUse" x="-1" y="40" width="10" height="3">
<path d="M0.992065 41.516H7.76182V41.1353H0.992065V41.516Z" fill="white" stroke="white" stroke-width="2"/>
</mask>
<g mask="url(#mask16_39_2)">
<path d="M2.66084 40.225L2.43103 42.4661" stroke="#C69152" stroke-width="2" stroke-miterlimit="10" stroke-linecap="round" stroke-linejoin="round"/>
</g>
<mask id="mask17_39_2" style="mask-type:alpha" maskUnits="userSpaceOnUse" x="10" y="19" width="27" height="23">
<rect x="10.7012" y="19.5818" width="26.1019" height="21.4878" fill="#D9D9D9"/>
</mask>
<g mask="url(#mask17_39_2)">
<mask id="mask18_39_2" style="mask-type:luminance" maskUnits="userSpaceOnUse" x="19" y="20" width="14" height="27">
<path d="M19.7974 45.6777H32.1421V21.2172H19.7974V45.6777Z" fill="white" stroke="white" stroke-width="0.75"/>
</mask>
<g mask="url(#mask18_39_2)">
<path d="M23.3058 44.9494L24.1553 44.9322L24.8296 44.8273L25.6324 44.6012L26.0838 44.4238L26.4951 44.2269L27.236 43.7816L27.9819 43.1929L28.6476 42.5117L29.2941 41.6473L29.8118 40.7197L30.1951 39.7718L30.4494 38.856L30.6204 37.7818L30.6625 36.6035L30.5651 35.4579L30.2956 34.1736L29.8169 32.8152L29.2443 31.6727L28.4423 30.4621L27.3703 29.2323L25.9915 28.0416L24.4806 27.0723L22.9412 26.3502L21.3606 25.832L19.565 25.4772" stroke="#C69152" stroke-width="0.75" stroke-miterlimit="10" stroke-linecap="round" stroke-linejoin="round"/>
</g>
<mask id="mask19_39_2" style="mask-type:luminance" maskUnits="userSpaceOnUse" x="17" y="20" width="3" height="9">
<path d="M17.5039 27.6651H19.2468V21.3469H17.5039V27.6651Z" fill="white" stroke="white" stroke-width="0.75"/>
</mask>
<g mask="url(#mask19_39_2)">
<path d="M19.552 25.4896L17.1904 25.3652" stroke="#C69152" stroke-width="0.75" stroke-miterlimit="10" stroke-linecap="round" stroke-linejoin="round"/>
</g>
<mask id="mask20_39_2" style="mask-type:luminance" maskUnits="userSpaceOnUse" x="-3" y="20" width="21" height="23">
<path d="M-1.67194 42.3888H16.8536V20.6378H-1.67194L-1.67194 42.3888Z" fill="white" stroke="white" stroke-width="0.75"/>
</mask>
<g mask="url(#mask20_39_2)">
<path d="M17.1289 25.3777L16.1064 25.412L14.0759 25.7318L11.8686 26.3845L9.80185 27.307L7.96103 28.417L6.20123 29.7829L4.66929 31.2782L3.13306 33.1649L1.70278 35.447L0.57749 37.866L-0.236974 40.3415L-0.739441 42.7082" stroke="#C69152" stroke-width="0.75" stroke-miterlimit="10" stroke-linecap="round" stroke-linejoin="round"/>
</g>
</g>
<path d="M31.4852 19.3793L31.4847 19.3791L31.4846 19.3789L31.4843 19.3787L31.4841 19.3783L31.4839 19.3779L31.4837 19.3774L31.4834 19.3765L31.4833 19.3758L31.4834 19.3752L31.4836 19.3748L31.4838 19.3743L31.4844 19.3732L31.485 19.3725L31.4855 19.3721L31.4869 19.3715L31.4877 19.3711L31.4886 19.3709L31.4896 19.3709L31.4904 19.3709L31.4914 19.3711L31.4922 19.3713L31.494 19.3724L31.4949 19.3731L31.4957 19.374L31.4963 19.375L31.4969 19.376L31.4972 19.3769L31.4977 19.3784L31.4978 19.3794L31.4979 19.3809L31.4978 19.3821L31.4974 19.3836L31.4969 19.3851L31.4963 19.3866L31.4953 19.3879L31.4941 19.3895L31.4927 19.3908L31.4911 19.3919L31.4896 19.3926L31.4878 19.3934L31.4857 19.3939L31.4833 19.3943L31.4807 19.3941L31.4782 19.3939L31.4759 19.3931" stroke="#C69152" stroke-width="1.5" stroke-miterlimit="10" stroke-linecap="round" stroke-linejoin="round"/>
<path d="M31.4761 19.3933L31.4734 19.3922L31.4708 19.3906L31.4694 19.3895L31.4682 19.3885L31.4669 19.3872L31.4658 19.3859L31.464 19.3832L31.4625 19.38L31.4611 19.3763L31.4606 19.3724L31.4604 19.3688L31.4607 19.3652L31.4616 19.361L31.463 19.357L31.4651 19.3529L31.4666 19.3506L31.4682 19.3485L31.4717 19.3449L31.4755 19.3417L31.478 19.3402L31.4808 19.3386L31.4862 19.3363L31.4926 19.3348L31.5001 19.334L31.5068 19.3344L31.5131 19.3355L31.5163 19.3366L31.52 19.3379L31.5238 19.3396L31.5274 19.3415L31.5335 19.3458L31.5389 19.3506L31.5443 19.3568L31.5491 19.3644L31.5526 19.3714L31.5555 19.3798L31.5571 19.3881L31.558 19.3962L31.5578 19.406L31.5561 19.4169L31.5529 19.4273L31.5489 19.437L31.543 19.4469L31.535 19.457L31.5259 19.4659L31.5164 19.4732L31.5035 19.4805L31.488 19.4865L31.4721 19.4903" stroke="#C69152" stroke-width="1.5" stroke-miterlimit="10" stroke-linecap="round" stroke-linejoin="round"/>
<path d="M31.4721 19.4903L31.4562 19.4918L31.4473 19.4917L31.4374 19.4909L31.4287 19.4896L31.4194 19.4875L31.4016 19.4815L31.3854 19.4737L31.3766 19.4682L31.3674 19.4616L31.3518 19.4476L31.3429 19.4377L31.3351 19.4276L31.3222 19.4062L31.3138 19.3865L31.307 19.3633L31.3033 19.34L31.3024 19.3177L31.3047 19.2905L31.3076 19.275L31.3114 19.2603L31.3212 19.2337L31.3359 19.2058L31.3457 19.1912L31.3557 19.1779L31.3682 19.164L31.3828 19.1501L31.4105 19.1285L31.4277 19.1177L31.4451 19.1086L31.4794 19.0945L31.5146 19.085L31.5578 19.0792L31.5994 19.0791L31.6368 19.0836L31.6789 19.0937L31.7226 19.1103L31.7632 19.1315L31.7996 19.1564L31.8313 19.1836L31.8639 19.2183L31.8948 19.2598L31.9219 19.3072L31.945 19.3632L31.9609 19.4205L31.9693 19.476L31.9715 19.5442L31.9689 19.5813L31.9633 19.6211L31.9451 19.6949L31.9187 19.7628" stroke="#C69152" stroke-width="1.5" stroke-miterlimit="10" stroke-linecap="round" stroke-linejoin="round"/>
<path d="M31.9187 19.7628L31.8814 19.8319L31.829 19.9039L31.7683 19.967L31.7027 20.0203L31.629 20.0663L31.5554 20.1014L31.4631 20.1327L31.3697 20.152L31.2614 20.1607L31.1421 20.1543L31.0378 20.1353L30.9225 20.0992L30.7997 20.042L30.7325 20.0013L30.6728 19.9588L30.5626 19.8617L30.4677 19.7524L30.3961 19.6464L30.3289 19.5165L30.2738 19.3677L30.2386 19.2173L30.2222 19.079L30.2206 18.9278L30.2383 18.757L30.2737 18.598L30.3343 18.4236" stroke="#C69152" stroke-width="1.5" stroke-miterlimit="10" stroke-linecap="round" stroke-linejoin="round"/>
<path d="M30.3343 18.4236L30.4089 18.2723" stroke="#C69152" stroke-width="1.5" stroke-miterlimit="10" stroke-linecap="round" stroke-linejoin="round"/>
<mask id="mask21_39_2" style="mask-type:luminance" maskUnits="userSpaceOnUse" x="27" y="13" width="12" height="10">
<path d="M28.8491 17.7043L30.7031 14.6426L37.1538 18.5486L35.2998 21.6104L28.8491 17.7043Z" fill="white" stroke="white" stroke-width="1.5"/>
</mask>
<g mask="url(#mask21_39_2)">
<path d="M30.4096 18.2712L30.5352 18.0729L30.6565 17.9285L30.8249 17.7711L30.9315 17.6897L31.0369 17.6207L31.2482 17.5093L31.4942 17.4172L31.7505 17.3574L32.0475 17.3282L32.3409 17.3386L32.6198 17.3837L32.8728 17.4547L33.1512 17.568L33.4358 17.7268L33.6927 17.9138L33.9577 18.1614L34.2103 18.469L34.3984 18.7679L34.5699 19.1308L34.7071 19.5603L34.7913 20.0567L34.8041 20.5527L34.7545 21.02L34.6507 21.4679L34.4775 21.9432" stroke="#C69152" stroke-width="1.5" stroke-miterlimit="10" stroke-linecap="round" stroke-linejoin="round"/>
</g>
<mask id="mask22_39_2" style="mask-type:luminance" maskUnits="userSpaceOnUse" x="32" y="20" width="4" height="4">
<mask id="path-71-inside-3_39_2" fill="white">
<path d="M32.541 21.5576L32.8979 20.9682L35.5509 22.5747L35.194 23.164L32.541 21.5576Z"/>
</mask>
<path d="M32.541 21.5576L32.8979 20.9682L35.5509 22.5747L35.194 23.164L32.541 21.5576Z" fill="white"/>
<path d="M32.541 21.5576L31.2579 20.7806L30.481 22.0637L31.7641 22.8407L32.541 21.5576ZM32.8979 20.9682L33.6748 19.6851L32.3917 18.9082L31.6148 20.1913L32.8979 20.9682ZM35.5509 22.5747L36.834 23.3516L37.611 22.0685L36.3279 21.2916L35.5509 22.5747ZM35.194 23.164L34.4171 24.4471L35.7002 25.2241L36.4771 23.941L35.194 23.164ZM33.8241 22.3345L34.181 21.7452L31.6148 20.1913L31.2579 20.7806L33.8241 22.3345ZM32.1209 22.2513L34.774 23.8578L36.3279 21.2916L33.6748 19.6851L32.1209 22.2513ZM34.2678 21.7977L33.9109 22.3871L36.4771 23.941L36.834 23.3516L34.2678 21.7977ZM35.971 21.8809L33.318 20.2745L31.7641 22.8407L34.4171 24.4471L35.971 21.8809Z" fill="white" mask="url(#path-71-inside-3_39_2)"/>
</mask>
<g mask="url(#mask22_39_2)">
<path d="M34.4727 21.9444L34.1641 22.5206" stroke="#C69152" stroke-width="1.5" stroke-miterlimit="10" stroke-linecap="round" stroke-linejoin="round"/>
</g>
<mask id="mask23_39_2" style="mask-type:luminance" maskUnits="userSpaceOnUse" x="27" y="20" width="9" height="8">
<path d="M28.3269 24.3248L30.3094 21.0509L34.3458 23.495L32.3634 26.7689L28.3269 24.3248Z" fill="white" stroke="white" stroke-width="1.5"/>
</mask>
<g mask="url(#mask23_39_2)">
<path d="M34.1524 22.5333L33.998 22.7701L33.6317 23.2044L33.1614 23.6328L32.6474 23.9893L32.1215 24.2656L31.5467 24.4861L30.9739 24.6342L30.3079 24.7273L29.5636 24.7388L28.8306 24.6585L28.1288 24.4967L27.4974 24.2767" stroke="#C69152" stroke-width="1.5" stroke-miterlimit="10" stroke-linecap="round" stroke-linejoin="round"/>
</g>
<mask id="mask24_39_2" style="mask-type:luminance" maskUnits="userSpaceOnUse" x="26" y="22" width="3" height="3">
<mask id="path-76-inside-4_39_2" fill="white">
<path d="M26.5735 24.5797L27.8289 22.5064L28.3918 22.8472L27.1364 24.9205L26.5735 24.5797Z"/>
</mask>
<path d="M26.5735 24.5797L27.8289 22.5064L28.3918 22.8472L27.1364 24.9205L26.5735 24.5797Z" fill="white"/>
<path d="M26.5735 24.5797L25.2904 23.8027L24.5135 25.0858L25.7966 25.8628L26.5735 24.5797ZM27.8289 22.5064L28.6059 21.2233L27.3228 20.4463L26.5458 21.7294L27.8289 22.5064ZM28.3918 22.8472L29.6749 23.6242L30.4518 22.3411L29.1687 21.5641L28.3918 22.8472ZM27.1364 24.9205L26.3594 26.2036L27.6425 26.9805L28.4195 25.6974L27.1364 24.9205ZM27.8566 25.3566L29.112 23.2833L26.5458 21.7294L25.2904 23.8027L27.8566 25.3566ZM27.052 23.7895L27.6148 24.1303L29.1687 21.5641L28.6059 21.2233L27.052 23.7895ZM27.1087 22.0703L25.8533 24.1435L28.4195 25.6974L29.6749 23.6242L27.1087 22.0703ZM27.9133 23.6374L27.3505 23.2966L25.7966 25.8628L26.3594 26.2036L27.9133 23.6374Z" fill="white" mask="url(#path-76-inside-4_39_2)"/>
</mask>
<g mask="url(#mask24_39_2)">
<path d="M27.4973 24.2767L26.9346 24.0102" stroke="#C69152" stroke-width="1.5" stroke-miterlimit="10" stroke-linecap="round" stroke-linejoin="round"/>
</g>
<defs>
<linearGradient id="paint0_linear_39_2" x1="80.2445" y1="69.913" x2="28.5926" y2="9.19935" gradientUnits="userSpaceOnUse">
<stop stop-color="#B96A21"/>
<stop offset="1" stop-color="#D4AC7C"/>
</linearGradient>
</defs>
</svg>
