<svg width="96" height="94" viewBox="0 0 96 94" fill="none" xmlns="http://www.w3.org/2000/svg">
<rect x="3.10718" y="1.91754" width="91" height="91" fill="#28425B" stroke="url(#paint0_linear_33_2043)" stroke-width="2"/>
<rect x="7.10718" y="5.91754" width="83" height="83" fill="#28425B" stroke="#6C0808" stroke-width="6"/>
<mask id="mask0_33_2043" style="mask-type:alpha" maskUnits="userSpaceOnUse" x="10" y="8" width="78" height="78">
<rect x="10.1027" y="8.89873" width="77.02" height="76.9979" fill="#D9D9D9"/>
</mask>
<g mask="url(#mask0_33_2043)">
<mask id="mask1_33_2043" style="mask-type:luminance" maskUnits="userSpaceOnUse" x="60" y="12" width="33" height="17">
<path d="M92.2418 28.1117L92.2418 12.6576L61.3323 12.6576L61.3323 28.1117L92.2418 28.1117Z" fill="white" stroke="white" stroke-width="1.25"/>
</mask>
<g mask="url(#mask1_33_2043)">
<path d="M91.4593 23.7829L91.4374 22.6992L91.3036 21.8391L91.0152 20.815L90.7889 20.2392L90.5377 19.7145L89.9697 18.7694L89.2186 17.8179L88.3497 16.9687L87.247 16.1439L86.0638 15.4836L84.8546 14.9947L83.6863 14.6702L82.316 14.4521L80.813 14.3984L79.3517 14.5226L77.7133 14.8665L75.9804 15.4771L74.5231 16.2075L72.9788 17.2306L71.41 18.598L69.8911 20.3569L68.6546 22.2843L67.7334 24.2479L67.0724 26.2642L66.6198 28.5548" stroke="#1B3044" stroke-width="1.25" stroke-miterlimit="10" stroke-linecap="round" stroke-linejoin="round"/>
</g>
<mask id="mask2_33_2043" style="mask-type:luminance" maskUnits="userSpaceOnUse" x="60" y="28" width="10" height="4">
<path d="M69.264 31.0374L69.264 29.1074L61.4975 29.1074L61.4975 31.0374L69.264 31.0374Z" fill="white" stroke="white" stroke-width="1.25"/>
</mask>
<g mask="url(#mask2_33_2043)">
<path d="M66.6358 28.5715L66.4771 31.5841" stroke="#1B3044" stroke-width="1.25" stroke-miterlimit="10" stroke-linecap="round" stroke-linejoin="round"/>
</g>
<mask id="mask3_33_2043" style="mask-type:luminance" maskUnits="userSpaceOnUse" x="59" y="31" width="30" height="26">
<path d="M88.0463 55.4988L88.0463 32.1602L60.5931 32.1602L60.5931 55.4988L88.0463 55.4988Z" fill="white" stroke="white" stroke-width="1.25"/>
</mask>
<g mask="url(#mask3_33_2043)">
<path d="M66.493 31.6622L66.5367 32.9665L66.9446 35.5567L67.7772 38.3725L68.954 41.0089L70.37 43.3571L72.1123 45.602L74.0198 47.5562L76.4266 49.5159L79.3377 51.3404L82.4235 52.7759L85.5813 53.8148L88.6004 54.4558" stroke="#1B3044" stroke-width="1.25" stroke-miterlimit="10" stroke-linecap="round" stroke-linejoin="round"/>
</g>
<path d="M74.2989 27.8999L74.2933 27.8999" stroke="#16293B" stroke-width="1.75" stroke-miterlimit="10" stroke-linecap="round" stroke-linejoin="round"/>
<path d="M74.2965 27.9016L74.2965 27.9036L74.2935 27.9036L74.2935 27.9026L74.2925 27.9026L74.2925 27.8996L74.2935 27.8996L74.2935 27.8986L74.2995 27.8986L74.3005 27.8996" stroke="#16293B" stroke-width="1.75" stroke-miterlimit="10" stroke-linecap="round" stroke-linejoin="round"/>
<path d="M74.2967 27.9004L74.2972 27.9009L74.2972 27.904L74.2967 27.904L74.2967 27.9045L74.2963 27.9054L74.2958 27.9054L74.2954 27.9059L74.294 27.9063L74.2918 27.9063L74.2913 27.9059L74.2909 27.9059L74.289 27.904L74.2886 27.904L74.2877 27.9022L74.2877 27.9018L74.2872 27.9009L74.2872 27.8973L74.2877 27.8959L74.2886 27.8941L74.2895 27.8936L74.2904 27.8923L74.2913 27.8914L74.2922 27.8909L74.2927 27.8905L74.294 27.89L74.2954 27.89L74.2963 27.8896L74.2981 27.8896" stroke="#16293B" stroke-width="1.75" stroke-miterlimit="10" stroke-linecap="round" stroke-linejoin="round"/>
<path d="M74.2966 27.8894L74.2985 27.8894L74.2993 27.8898L74.3005 27.8898L74.3017 27.8905L74.3033 27.8913L74.3048 27.8925L74.3072 27.8949L74.3088 27.8968L74.3096 27.8988L74.3099 27.9004L74.3103 27.9023L74.3103 27.907L74.3099 27.9102L74.3092 27.9121L74.306 27.9168L74.304 27.9196L74.3017 27.9219L74.2985 27.9235L74.2962 27.9251L74.2926 27.9263L74.2899 27.9271L74.2824 27.9271L74.2781 27.9267L74.2742 27.9255L74.2706 27.9235L74.2667 27.9216L74.264 27.9192L74.26 27.9157L74.2577 27.9125L74.2545 27.9082L74.2526 27.9043L74.251 27.8992L74.2498 27.8937L74.249 27.8878L74.2494 27.8819L74.2502 27.8748L74.2522 27.8682L74.2549 27.8619L74.2581 27.8568L74.2624 27.8509L74.2679 27.8454L74.2746 27.8399L74.2828 27.8356L74.2911 27.8316L74.2993 27.8297" stroke="#16293B" stroke-width="1.75" stroke-miterlimit="10" stroke-linecap="round" stroke-linejoin="round"/>
<path d="M74.2996 27.8297L74.3098 27.8281L74.3213 27.8281L74.3276 27.8289L74.3332 27.8297L74.3399 27.8312L74.3458 27.8332L74.3565 27.8384L74.3672 27.8455L74.3786 27.8545L74.3877 27.8656L74.3952 27.8767L74.4012 27.8885L74.4063 27.9035L74.4095 27.9185L74.4107 27.9355L74.4103 27.9454L74.4095 27.9553L74.4051 27.973L74.3992 27.9904L74.3944 27.9999L74.3885 28.0102L74.3759 28.0275L74.3589 28.0445L74.3367 28.0611L74.315 28.073L74.2928 28.0813L74.281 28.084L74.2667 28.0868L74.2517 28.0888L74.2367 28.0896L74.2094 28.0876L74.1833 28.0828L74.1545 28.0738L74.1252 28.0591L74.1007 28.0437L74.0758 28.0228L74.0548 27.9999L74.0366 27.9762L74.0188 27.945L74.0034 27.9075L73.9935 27.8688L73.988 27.8308L73.9876 27.7886L73.9935 27.7416L74.005 27.6966L74.0212 27.6555L74.0477 27.6081L74.0849 27.5595L74.1276 27.5176" stroke="#16293B" stroke-width="1.75" stroke-miterlimit="10" stroke-linecap="round" stroke-linejoin="round"/>
<path d="M74.1275 27.5177L74.1746 27.4825L74.2026 27.4659L74.2351 27.4497L74.2651 27.4371L74.2983 27.426L74.3655 27.411L74.4312 27.4051L74.4691 27.4055L74.5106 27.4086L74.5861 27.4229L74.6328 27.4371L74.6767 27.4541L74.7577 27.4967L74.8218 27.5425L74.887 27.6026L74.9428 27.6685L74.9882 27.7369L75.0325 27.8265L75.0531 27.8806L75.0689 27.934L75.0887 28.0363L75.0958 28.1516L75.0926 28.216L75.0863 28.2768L75.0736 28.3443L75.0543 28.4154L75.0084 28.5359L74.9748 28.6026L74.9376 28.6642L74.857 28.7737L74.7645 28.8704L74.6399 28.9707L74.5094 29.0501L74.3833 29.107L74.2323 29.1552L74.0635 29.1864L73.8958 29.1967L73.7341 29.188L73.5831 29.1627L73.4147 29.1157L73.2387 29.0442L73.064 28.947L72.8849 28.8151L72.7259 28.6654L72.5943 28.5074L72.4579 28.2973L72.3954 28.1761L72.3373 28.0406L72.2543 27.7744L72.208 27.5109" stroke="#16293B" stroke-width="1.75" stroke-miterlimit="10" stroke-linecap="round" stroke-linejoin="round"/>
<path d="M72.2081 27.511L72.1939 27.2235L72.2216 26.898L72.292 26.5844L72.3967 26.2925L72.5406 26.0082L72.7047 25.7581L72.9352 25.4844L73.1914 25.2463L73.5148 25.0132L73.9015 24.8067L74.2648 24.668L74.6954 24.5622L75.1896 24.5085L75.4778 24.5085L75.7459 24.5282L76.2761 24.6238L76.7818 24.7861L77.208 24.9828L77.6658 25.2629L78.1213 25.625L78.5174 26.0303L78.8317 26.4331L79.1243 26.9047L79.3932 27.4743L79.5845 28.0407L79.7257 28.703" stroke="#16293B" stroke-width="1.75" stroke-miterlimit="10" stroke-linecap="round" stroke-linejoin="round"/>
<path d="M79.7256 28.7029L79.779 29.3198" stroke="#16293B" stroke-width="1.75" stroke-miterlimit="10" stroke-linecap="round" stroke-linejoin="round"/>
<mask id="mask4_33_2043" style="mask-type:luminance" maskUnits="userSpaceOnUse" x="55" y="25" width="26" height="14">
<path d="M80.0228 26.2614L80.0228 37.7896L56.209 37.7896L56.209 26.2614L80.0228 26.2614Z" fill="white" stroke="white" stroke-width="1.75"/>
</mask>
<g mask="url(#mask4_33_2043)">
<path d="M79.779 29.3243L79.7616 30.1857L79.6553 30.8694L79.426 31.6834L79.2461 32.1412L79.0464 32.5583L78.5949 33.3095L77.9979 34.0658L77.3072 34.7408L76.4307 35.3965L75.4901 35.9214L74.5289 36.3101L73.6002 36.568L72.511 36.7414L71.3162 36.784L70.1546 36.6853L68.8522 36.412L67.4748 35.9265L66.3163 35.3459L65.0887 34.5327L63.8417 33.4457L62.6343 32.0476L61.6514 30.5155L60.9192 28.9546L60.3937 27.3518L60.0339 25.531" stroke="#16293B" stroke-width="1.75" stroke-miterlimit="10" stroke-linecap="round" stroke-linejoin="round"/>
</g>
<mask id="mask5_33_2043" style="mask-type:luminance" maskUnits="userSpaceOnUse" x="55" y="23" width="8" height="3">
<path d="M61.7578 23.9358L61.7578 24.7136L56.3405 24.7136L56.3405 23.9358L61.7578 23.9358Z" fill="white" stroke="white" stroke-width="1.75"/>
</mask>
<g mask="url(#mask5_33_2043)">
<path d="M60.0467 25.5177L59.9205 23.123" stroke="#16293B" stroke-width="1.75" stroke-miterlimit="10" stroke-linecap="round" stroke-linejoin="round"/>
</g>
<mask id="mask6_33_2043" style="mask-type:luminance" maskUnits="userSpaceOnUse" x="54" y="3" width="24" height="21">
<path d="M76.6878 4.49121L76.6878 22.2869L55.6215 22.2869L55.6215 4.49121L76.6878 4.49121Z" fill="white" stroke="white" stroke-width="1.75"/>
</mask>
<g mask="url(#mask6_33_2043)">
<path d="M59.9332 23.0609L59.968 22.0241L60.2922 19.9651L60.954 17.7268L61.8894 15.6311L63.0151 13.7645L64.4 11.9801L65.9163 10.4267L67.8295 8.86891L70.1436 7.41859L72.5964 6.27752L75.1066 5.45165L77.5065 4.94214" stroke="#16293B" stroke-width="1.75" stroke-miterlimit="10" stroke-linecap="round" stroke-linejoin="round"/>
</g>
</g>
<path fill-rule="evenodd" clip-rule="evenodd" d="M76.3631 75.3976H56.6831V73.6696H62.9231L56.2031 55.1416L55.5081 53.1946L55.2431 52.4536L45.7391 26.2456L36.1391 52.4536L35.8751 53.1256L35.0831 55.1416L28.3631 73.6696H34.6031V75.3976H20.1071V73.6696H24.6591C25.5551 73.6696 26.1631 73.2216 26.4831 72.3256L47.6031 14.9176H49.8671L70.9871 72.3256C71.3071 73.2216 71.9151 73.6696 72.8111 73.6696H76.3631V75.3976Z" fill="#E78830"/>
<path d="M35.8751 53.1256L35.0831 55.1416H56.2031L55.5081 53.1946L35.8751 53.1256Z" fill="#E78830"/>
<path d="M78.1262 57.0927V57.0913L78.126 57.0908V57.09L78.1254 57.0891L78.1249 57.0881L78.1241 57.087L78.1224 57.0854L78.1211 57.0843L78.1197 57.0837L78.1186 57.0835L78.1173 57.0832H78.114L78.1119 57.0835L78.1105 57.084L78.1073 57.0862L78.1054 57.0875L78.1038 57.0891L78.1027 57.0913L78.1016 57.0929L78.1008 57.0954L78.1002 57.0973V57.1024L78.1005 57.1054L78.1013 57.1081L78.1027 57.1105L78.104 57.1133L78.1057 57.1151L78.1081 57.1179L78.1103 57.1195L78.1132 57.1216L78.1159 57.123L78.1195 57.1241L78.1232 57.1249L78.1273 57.1254L78.1314 57.1252L78.1362 57.1246L78.1408 57.1233L78.1452 57.1214L78.1487 57.1192L78.1527 57.1162L78.1565 57.1124L78.1603 57.1078L78.1633 57.1021L78.166 57.0965L78.1674 57.0908" stroke="#AB6728" stroke-width="2" stroke-miterlimit="10" stroke-linecap="round" stroke-linejoin="round"/>
<path d="M78.1674 57.0905L78.1685 57.0834V57.0755L78.1679 57.0712L78.1674 57.0674L78.1663 57.0627L78.1649 57.0586L78.1614 57.0513L78.1565 57.0439L78.1502 57.036L78.1426 57.0297L78.135 57.0246L78.1268 57.0205L78.1164 57.0169L78.1061 57.0147L78.0944 57.0139L78.0876 57.0142L78.0808 57.0147L78.0685 57.0177L78.0565 57.0218L78.05 57.0251L78.0429 57.0292L78.0309 57.0379L78.0192 57.0496L78.0078 57.0649L77.9996 57.0799L77.9939 57.0952L77.992 57.1034L77.9901 57.1132L77.9887 57.1235L77.9882 57.1339L77.9895 57.1527L77.9928 57.1707L77.9991 57.1906L78.0091 57.2108L78.0198 57.2277L78.0342 57.2449L78.05 57.2593L78.0663 57.2719L78.0879 57.2841L78.1137 57.2948L78.1404 57.3016L78.1666 57.3054L78.1957 57.3057L78.2281 57.3016L78.2592 57.2937L78.2875 57.2825L78.3202 57.2642L78.3537 57.2386L78.3826 57.2091" stroke="#AB6728" stroke-width="2" stroke-miterlimit="10" stroke-linecap="round" stroke-linejoin="round"/>
<path d="M78.3825 57.2092L78.4068 57.1767L78.4182 57.1574L78.4294 57.135L78.4381 57.1143L78.4457 57.0914L78.4561 57.045L78.4601 56.9998L78.4599 56.9736L78.4577 56.945L78.4479 56.8929L78.4381 56.8607L78.4264 56.8304L78.397 56.7745L78.3654 56.7304L78.324 56.6854L78.2785 56.6469L78.2313 56.6156L78.1695 56.585L78.1322 56.5709L78.0954 56.56L78.0249 56.5463L77.9453 56.5414L77.9009 56.5436L77.859 56.548L77.8124 56.5567L77.7634 56.5701L77.6803 56.6017L77.6343 56.6249L77.5918 56.6505L77.5163 56.7061L77.4496 56.7699L77.3804 56.8558L77.3257 56.9458L77.2864 57.0328L77.2532 57.1369L77.2317 57.2533L77.2246 57.3689L77.2306 57.4805L77.248 57.5846L77.2804 57.7008L77.3297 57.8221L77.3968 57.9426L77.4877 58.0661L77.591 58.1758L77.6999 58.2665L77.8448 58.3606L77.9284 58.4037L78.0219 58.4438L78.2055 58.501L78.3871 58.5329" stroke="#AB6728" stroke-width="2" stroke-miterlimit="10" stroke-linecap="round" stroke-linejoin="round"/>
<path d="M78.3871 58.5329L78.5854 58.5427L78.8098 58.5236L79.0261 58.4751L79.2274 58.4028L79.4235 58.3036L79.5959 58.1904L79.7847 58.0315L79.9489 57.8548L80.1097 57.6318L80.2521 57.3651L80.3477 57.1145L80.4207 56.8176L80.4578 56.4768V56.278L80.4441 56.0931L80.3782 55.7275L80.2663 55.3788L80.1306 55.0848L79.9375 54.7691L79.6877 54.455L79.4083 54.1818L79.1304 53.965L78.8052 53.7633L78.4124 53.5778L78.0218 53.4459L77.565 53.3485" stroke="#AB6728" stroke-width="2" stroke-miterlimit="10" stroke-linecap="round" stroke-linejoin="round"/>
<path d="M77.1367 53.3117L76.5426 53.3237L76.0711 53.3971L75.5098 53.5552L75.1941 53.6793L74.9064 53.817L74.3884 54.1284L73.8667 54.5401L73.4012 55.0164L72.9491 55.6209L72.5871 56.2696L72.319 56.9324L72.1412 57.5729L72.0216 58.3241L71.9922 59.148L72.0603 59.9491L72.2488 60.8473L72.5835 61.7972L72.9839 62.5961L73.5448 63.4427L74.2944 64.3027L75.2586 65.1354L76.3152 65.8132L77.3917 66.3182L78.497 66.6806L79.7527 66.9287" stroke="#AB6728" stroke-width="2" stroke-miterlimit="10" stroke-linecap="round" stroke-linejoin="round"/>
<mask id="mask7_33_2043" style="mask-type:luminance" maskUnits="userSpaceOnUse" x="79" y="65" width="3" height="6">
<mask id="path-30-inside-1_33_2043" fill="white">
<path d="M81.4562 65.1364H79.7129V70.0792H81.4562V65.1364Z"/>
</mask>
<path d="M81.4562 65.1364H79.7129V70.0792H81.4562V65.1364Z" fill="white"/>
<path d="M81.4562 65.1364V63.1364H83.4562V65.1364H81.4562ZM79.7129 65.1364H77.7129V63.1364H79.7129V65.1364ZM79.7129 70.0792V72.0792H77.7129V70.0792H79.7129ZM81.4562 70.0792H83.4562V72.0792H81.4562V70.0792ZM81.4562 67.1364H79.7129V63.1364H81.4562V67.1364ZM81.7129 65.1364V70.0792H77.7129V65.1364H81.7129ZM79.7129 68.0792H81.4562V72.0792H79.7129V68.0792ZM79.4562 70.0792V65.1364H83.4562V70.0792H79.4562Z" fill="white" mask="url(#path-30-inside-1_33_2043)"/>
</mask>
<g mask="url(#mask7_33_2043)">
<path d="M79.7617 66.92L81.4132 67.0069" stroke="#AB6728" stroke-width="2" stroke-miterlimit="10" stroke-linecap="round" stroke-linejoin="round"/>
</g>
<mask id="mask8_33_2043" style="mask-type:luminance" maskUnits="userSpaceOnUse" x="81" y="54" width="14" height="17">
<path d="M93.8657 55.8401H82.3863V69.5751H93.8657V55.8401Z" fill="white" stroke="white" stroke-width="2"/>
</mask>
<g mask="url(#mask8_33_2043)">
<path d="M81.4562 66.9982L82.1712 66.9742L83.5911 66.7506L85.1347 66.2942L86.58 65.6491L87.8673 64.8728L89.0979 63.9177L90.1692 62.872L91.2435 61.5526L92.2437 59.9567L93.0306 58.2652L93.6002 56.534L93.9515 54.879" stroke="#AB6728" stroke-width="2" stroke-miterlimit="10" stroke-linecap="round" stroke-linejoin="round"/>
</g>
<mask id="mask9_33_2043" style="mask-type:luminance" maskUnits="userSpaceOnUse" x="89" y="53" width="7" height="2">
<mask id="path-35-inside-2_33_2043" fill="white">
<path d="M95.8179 53.2769H89.6852V54.9417H95.8179V53.2769Z"/>
</mask>
<path d="M95.8179 53.2769H89.6852V54.9417H95.8179V53.2769Z" fill="white"/>
<path d="M95.8179 53.2769V51.2769H97.8179V53.2769H95.8179ZM89.6852 53.2769H87.6852V51.2769H89.6852V53.2769ZM89.6852 54.9417V56.9417H87.6852V54.9417H89.6852ZM95.8179 54.9417H97.8179V56.9417H95.8179V54.9417ZM95.8179 55.2769H89.6852V51.2769H95.8179V55.2769ZM91.6852 53.2769V54.9417H87.6852V53.2769H91.6852ZM89.6852 52.9417H95.8179V56.9417H89.6852V52.9417ZM93.8179 54.9417V53.2769H97.8179V54.9417H93.8179Z" fill="white" mask="url(#path-35-inside-2_33_2043)"/>
</mask>
<g mask="url(#mask9_33_2043)">
<path d="M93.9516 54.879L94.1123 53.3118" stroke="#AB6728" stroke-width="2" stroke-miterlimit="10" stroke-linecap="round" stroke-linejoin="round"/>
</g>
<mask id="mask10_33_2043" style="mask-type:alpha" maskUnits="userSpaceOnUse" x="59" y="38" width="36" height="45">
<rect x="59.8739" y="38.1589" width="34.3823" height="43.9146" fill="#D9D9D9"/>
</mask>
<g mask="url(#mask10_33_2043)">
<path d="M77.1676 53.5364L76.4018 53.5519L75.7941 53.6464L75.0705 53.8503L74.6636 54.0102L74.2928 54.1876L73.6251 54.589L72.9527 55.1197L72.3527 55.7337L71.7699 56.5128L71.3033 57.3489L70.9578 58.2033L70.7286 59.0288L70.5744 59.9971L70.5365 61.0591L70.6243 62.0917L70.8672 63.2493L71.2987 64.4738L71.8148 65.5035L72.5377 66.5948L73.5039 67.7032L74.7468 68.7765L76.1087 69.6502L77.4962 70.3011L78.9209 70.7682L80.5394 71.088" stroke="#AB6728" stroke-miterlimit="10" stroke-linecap="round" stroke-linejoin="round"/>
<mask id="mask11_33_2043" style="mask-type:luminance" maskUnits="userSpaceOnUse" x="80" y="68" width="3" height="8">
<path d="M82.2352 69.2778H80.9882V74.6489H82.2352V69.2778Z" fill="white" stroke="white"/>
</mask>
<g mask="url(#mask11_33_2043)">
<path d="M80.551 71.0767L82.6796 71.1888" stroke="#AB6728" stroke-miterlimit="10" stroke-linecap="round" stroke-linejoin="round"/>
</g>
<mask id="mask12_33_2043" style="mask-type:luminance" maskUnits="userSpaceOnUse" x="82" y="55" width="19" height="21">
<path d="M99.5195 56.0064H83.1452V75.288H99.5195V56.0064Z" fill="white" stroke="white"/>
</mask>
<g mask="url(#mask12_33_2043)">
<path d="M82.7353 71.1776L83.6569 71.1467L85.4872 70.8585L87.4768 70.2702L89.3397 69.4386L90.9989 68.4381L92.5852 67.207L93.966 65.8592L95.3507 64.1585L96.6399 62.1015L97.6542 59.9211L98.3883 57.6898L98.8412 55.5565" stroke="#AB6728" stroke-miterlimit="10" stroke-linecap="round" stroke-linejoin="round"/>
</g>
</g>
<path d="M26.0739 37.8636V37.8656L26.0743 37.8663V37.8675L26.0751 37.8687L26.0759 37.8703L26.0771 37.8719L26.0794 37.8742L26.0814 37.8758L26.0834 37.8766L26.085 37.877L26.0869 37.8774H26.0917L26.0948 37.877L26.0968 37.8762L26.1015 37.8731L26.1043 37.8711L26.1067 37.8687L26.1082 37.8656L26.1098 37.8632L26.111 37.8596L26.1118 37.8569V37.8494L26.1114 37.845L26.1102 37.8411L26.1082 37.8375L26.1063 37.8336L26.1039 37.8308L26.1003 37.8268L26.0972 37.8245L26.0928 37.8213L26.0889 37.8193L26.0838 37.8178L26.0782 37.8166L26.0723 37.8158L26.0664 37.8162L26.0593 37.817L26.0526 37.8189L26.0463 37.8217L26.0411 37.8249L26.0352 37.8292L26.0297 37.8347L26.0242 37.8415L26.0198 37.8498L26.0159 37.8581L26.0139 37.8663" stroke="#C69152" stroke-width="2" stroke-miterlimit="10" stroke-linecap="round" stroke-linejoin="round"/>
<path d="M26.0139 37.8657L26.0123 37.8758V37.8871L26.0131 37.8934L26.0139 37.8988L26.0154 37.9054L26.0174 37.9113L26.0225 37.9218L26.0295 37.9324L26.0384 37.9437L26.0493 37.9526L26.0602 37.96L26.0719 37.9659L26.0867 37.971L26.1015 37.9741L26.1183 37.9752L26.128 37.9749L26.1378 37.9741L26.1553 37.9698L26.1724 37.9639L26.1818 37.9593L26.1919 37.9534L26.209 37.9409L26.2258 37.9242L26.2421 37.9023L26.2538 37.8809L26.262 37.8591L26.2647 37.8474L26.2675 37.8333L26.2694 37.8185L26.2702 37.8037L26.2682 37.7768L26.2636 37.751L26.2546 37.7226L26.2402 37.6937L26.225 37.6696L26.2044 37.645L26.1818 37.6243L26.1584 37.6064L26.1276 37.5888L26.0906 37.5736L26.0524 37.5639L26.0151 37.5584L25.9734 37.558L25.927 37.5639L25.8826 37.5752L25.8421 37.5912L25.7954 37.6173L25.7475 37.654L25.7062 37.6961" stroke="#C69152" stroke-width="2" stroke-miterlimit="10" stroke-linecap="round" stroke-linejoin="round"/>
<path d="M25.7062 37.6961L25.6716 37.7425L25.6552 37.7702L25.6392 37.8021L25.6268 37.8318L25.6159 37.8645L25.6011 37.9308L25.5952 37.9955L25.5956 38.0329L25.5987 38.0739L25.6127 38.1484L25.6268 38.1944L25.6435 38.2376L25.6856 38.3176L25.7308 38.3807L25.79 38.4451L25.855 38.5001L25.9224 38.5449L26.0108 38.5886L26.0642 38.6088L26.1168 38.6244L26.2177 38.6439L26.3314 38.6509L26.3949 38.6478L26.4549 38.6416L26.5215 38.6291L26.5916 38.61L26.7104 38.5648L26.7762 38.5316L26.837 38.495L26.9449 38.4154L27.0403 38.3242L27.1392 38.2014L27.2175 38.0727L27.2736 37.9483L27.3211 37.7994L27.3519 37.6329L27.362 37.4676L27.3535 37.3081L27.3285 37.1592L27.2822 36.9931L27.2117 36.8196L27.1159 36.6472L26.9858 36.4706L26.8381 36.3139L26.6823 36.184L26.4751 36.0495L26.3555 35.9879L26.2219 35.9306L25.9594 35.8487L25.6996 35.8031" stroke="#C69152" stroke-width="2" stroke-miterlimit="10" stroke-linecap="round" stroke-linejoin="round"/>
<path d="M25.6996 35.8031L25.4161 35.7891L25.0951 35.8164L24.7858 35.8858L24.498 35.9891L24.2176 36.131L23.971 36.2928L23.7011 36.5201L23.4662 36.7728L23.2364 37.0917L23.0327 37.4731L22.8959 37.8314L22.7916 38.256L22.7386 38.7434V39.0276L22.7581 39.292L22.8523 39.8148L23.0124 40.3135L23.2064 40.7338L23.4825 41.1853L23.8397 41.6345L24.2394 42.0252L24.6367 42.3352L25.1017 42.6237L25.6634 42.8888L26.222 43.0775L26.8752 43.2167" stroke="#C69152" stroke-width="2" stroke-miterlimit="10" stroke-linecap="round" stroke-linejoin="round"/>
<path d="M26.875 43.2167L27.4834 43.2694" stroke="#C69152" stroke-width="2" stroke-miterlimit="10" stroke-linecap="round" stroke-linejoin="round"/>
<mask id="mask13_33_2043" style="mask-type:luminance" maskUnits="userSpaceOnUse" x="23" y="19" width="14" height="26">
<path d="M24.6044 43.3727H35.699V20.1622H24.6044V43.3727Z" fill="white" stroke="white" stroke-width="2"/>
</mask>
<g mask="url(#mask13_33_2043)">
<path d="M27.4878 43.2694L28.3373 43.2522L29.0116 43.1473L29.8143 42.9212L30.2658 42.7438L30.6771 42.5469L31.4179 42.1016L32.1639 41.5129L32.8295 40.8317L33.4761 39.9673L33.9938 39.0397L34.377 38.0918L34.6314 37.1759L34.8024 36.1018L34.8445 34.9235L34.7471 33.7779L34.4775 32.4936L33.9988 31.1352L33.4263 29.9927L32.6243 28.7821L31.5523 27.5523L30.1735 26.3616L28.6626 25.3922L27.1232 24.6701L25.5426 24.152L23.7469 23.7971" stroke="#C69152" stroke-width="2" stroke-miterlimit="10" stroke-linecap="round" stroke-linejoin="round"/>
</g>
<mask id="mask14_33_2043" style="mask-type:luminance" maskUnits="userSpaceOnUse" x="21" y="19" width="3" height="8">
<path d="M22.3109 25.3601H22.8037V20.2919H22.3109V25.3601Z" fill="white" stroke="white" stroke-width="2"/>
</mask>
<g mask="url(#mask14_33_2043)">
<path d="M23.734 23.8096L21.3724 23.6852" stroke="#C69152" stroke-width="2" stroke-miterlimit="10" stroke-linecap="round" stroke-linejoin="round"/>
</g>
<mask id="mask15_33_2043" style="mask-type:luminance" maskUnits="userSpaceOnUse" x="2" y="18" width="20" height="24">
<path d="M3.13507 40.0838H20.4106V19.5828H3.13507V40.0838Z" fill="white" stroke="white" stroke-width="2"/>
</mask>
<g mask="url(#mask15_33_2043)">
<path d="M21.3109 23.6977L20.2885 23.732L18.2579 24.0518L16.0506 24.7045L13.9839 25.627L12.143 26.737L10.3832 28.1029L8.85129 29.5981L7.31507 31.4849L5.88479 33.767L4.7595 36.186L3.94503 38.6615L3.44257 41.0282" stroke="#C69152" stroke-width="2" stroke-miterlimit="10" stroke-linecap="round" stroke-linejoin="round"/>
</g>
<mask id="mask16_33_2043" style="mask-type:luminance" maskUnits="userSpaceOnUse" x="0" y="40" width="10" height="4">
<path d="M1.77368 42.3193H8.54344V41.9385H1.77368V42.3193Z" fill="white" stroke="white" stroke-width="2"/>
</mask>
<g mask="url(#mask16_33_2043)">
<path d="M3.44246 41.0282L3.21265 43.2694" stroke="#C69152" stroke-width="2" stroke-miterlimit="10" stroke-linecap="round" stroke-linejoin="round"/>
</g>
<mask id="mask17_33_2043" style="mask-type:alpha" maskUnits="userSpaceOnUse" x="11" y="20" width="27" height="22">
<rect x="11.4828" y="20.385" width="26.1019" height="21.4878" fill="#D9D9D9"/>
</mask>
<g mask="url(#mask17_33_2043)">
<mask id="mask18_33_2043" style="mask-type:luminance" maskUnits="userSpaceOnUse" x="20" y="21" width="14" height="26">
<path d="M20.579 46.4809H32.9236V22.0204H20.579V46.4809Z" fill="white" stroke="white" stroke-width="0.75"/>
</mask>
<g mask="url(#mask18_33_2043)">
<path d="M24.0874 45.7526L24.9369 45.7354L25.6112 45.6306L26.4139 45.4044L26.8654 45.227L27.2767 45.0301L28.0176 44.5848L28.7635 43.9961L29.4291 43.3149L30.0757 42.4505L30.5934 41.5229L30.9767 40.5751L31.231 39.6592L31.402 38.585L31.4441 37.4067L31.3467 36.2612L31.0772 34.9768L30.5984 33.6184L30.0259 32.476L29.2239 31.2653L28.1519 30.0356L26.7731 28.8448L25.2622 27.8755L23.7228 27.1534L22.1422 26.6352L20.3466 26.2804" stroke="#C69152" stroke-width="0.75" stroke-miterlimit="10" stroke-linecap="round" stroke-linejoin="round"/>
</g>
<mask id="mask19_33_2043" style="mask-type:luminance" maskUnits="userSpaceOnUse" x="17" y="21" width="4" height="8">
<path d="M18.2855 28.4683H20.0284V22.1501H18.2855V28.4683Z" fill="white" stroke="white" stroke-width="0.75"/>
</mask>
<g mask="url(#mask19_33_2043)">
<path d="M20.3336 26.2929L17.972 26.1685" stroke="#C69152" stroke-width="0.75" stroke-miterlimit="10" stroke-linecap="round" stroke-linejoin="round"/>
</g>
<mask id="mask20_33_2043" style="mask-type:luminance" maskUnits="userSpaceOnUse" x="-2" y="21" width="21" height="23">
<path d="M-0.89032 43.1921H17.6352V21.4411H-0.89032L-0.89032 43.1921Z" fill="white" stroke="white" stroke-width="0.75"/>
</mask>
<g mask="url(#mask20_33_2043)">
<path d="M17.9105 26.181L16.8881 26.2153L14.8576 26.535L12.6502 27.1877L10.5835 28.1102L8.74265 29.2203L6.98284 30.5861L5.4509 32.0814L3.91468 33.9681L2.4844 36.2502L1.35911 38.6692L0.544642 41.1447L0.0421753 43.5114" stroke="#C69152" stroke-width="0.75" stroke-miterlimit="10" stroke-linecap="round" stroke-linejoin="round"/>
</g>
</g>
<path d="M32.2668 20.1826L32.2663 20.1823L32.2662 20.1821L32.2659 20.1819L32.2657 20.1816L32.2654 20.1811L32.2652 20.1806L32.265 20.1797L32.2649 20.179L32.265 20.1785L32.2652 20.178L32.2653 20.1775L32.266 20.1764L32.2666 20.1757L32.267 20.1753L32.2685 20.1747L32.2693 20.1743L32.2702 20.1741L32.2712 20.1742L32.272 20.1741L32.273 20.1744L32.2738 20.1746L32.2755 20.1756L32.2765 20.1764L32.2773 20.1772L32.2778 20.1782L32.2785 20.1792L32.2788 20.1802L32.2792 20.1816L32.2793 20.1827L32.2795 20.1841L32.2794 20.1854L32.279 20.1868L32.2785 20.1883L32.2778 20.1898L32.2769 20.1911L32.2757 20.1927L32.2743 20.194L32.2727 20.1951L32.2712 20.1959L32.2693 20.1966L32.2672 20.1972L32.2649 20.1975L32.2623 20.1973L32.2598 20.1971L32.2575 20.1964" stroke="#C69152" stroke-width="1.5" stroke-miterlimit="10" stroke-linecap="round" stroke-linejoin="round"/>
<path d="M32.2577 20.1965L32.2551 20.1954L32.2524 20.1938L32.251 20.1927L32.2499 20.1917L32.2485 20.1904L32.2474 20.1891L32.2457 20.1864L32.2442 20.1832L32.2428 20.1795L32.2422 20.1756L32.242 20.172L32.2423 20.1684L32.2432 20.1642L32.2446 20.1602L32.2467 20.1561L32.2482 20.1539L32.2498 20.1517L32.2533 20.1481L32.2572 20.1449L32.2596 20.1434L32.2624 20.1418L32.2678 20.1396L32.2742 20.138L32.2817 20.1373L32.2885 20.1376L32.2948 20.1388L32.2979 20.1398L32.3016 20.1412L32.3054 20.1428L32.309 20.1448L32.3151 20.1491L32.3205 20.1539L32.326 20.1601L32.3307 20.1676L32.3343 20.1746L32.3371 20.183L32.3388 20.1913L32.3397 20.1994L32.3394 20.2092L32.3377 20.2201L32.3346 20.2306L32.3305 20.2402L32.3246 20.2501L32.3166 20.2602L32.3076 20.2691L32.298 20.2764L32.2851 20.2837L32.2696 20.2898L32.2537 20.2935" stroke="#C69152" stroke-width="1.5" stroke-miterlimit="10" stroke-linecap="round" stroke-linejoin="round"/>
<path d="M32.2537 20.2935L32.2378 20.295L32.2289 20.295L32.2191 20.2942L32.2103 20.2929L32.201 20.2907L32.1832 20.2848L32.167 20.2769L32.1582 20.2714L32.149 20.2648L32.1334 20.2508L32.1245 20.2409L32.1167 20.2308L32.1038 20.2094L32.0954 20.1897L32.0886 20.1665L32.085 20.1432L32.084 20.1209L32.0863 20.0937L32.0892 20.0782L32.093 20.0635L32.1029 20.0369L32.1175 20.009L32.1273 19.9944L32.1374 19.9812L32.1498 19.9672L32.1644 19.9534L32.1921 19.9317L32.2094 19.9209L32.2267 19.9118L32.261 19.8977L32.2962 19.8882L32.3394 19.8824L32.381 19.8823L32.4185 19.8868L32.4605 19.8969L32.5042 19.9135L32.5448 19.9347L32.5813 19.9596L32.6129 19.9868L32.6455 20.0216L32.6765 20.0631L32.7035 20.1104L32.7266 20.1664L32.7425 20.2238L32.7509 20.2792L32.7531 20.3474L32.7505 20.3845L32.7449 20.4243L32.7267 20.4981L32.7003 20.566" stroke="#C69152" stroke-width="1.5" stroke-miterlimit="10" stroke-linecap="round" stroke-linejoin="round"/>
<path d="M32.7003 20.5661L32.663 20.6351L32.6106 20.7071L32.5499 20.7703L32.4843 20.8235L32.4106 20.8695L32.3371 20.9046L32.2447 20.9359L32.1513 20.9553L32.043 20.9639L31.9237 20.9575L31.8194 20.9385L31.7041 20.9024L31.5813 20.8452L31.5141 20.8045L31.4544 20.762L31.3443 20.6649L31.2493 20.5557L31.1777 20.4496L31.1105 20.3197L31.0554 20.171L31.0203 20.0206L31.0039 19.8823L31.0022 19.731L31.0199 19.5603L31.0553 19.4012L31.1159 19.2268" stroke="#C69152" stroke-width="1.5" stroke-miterlimit="10" stroke-linecap="round" stroke-linejoin="round"/>
<path d="M31.1159 19.2269L31.1906 19.0755" stroke="#C69152" stroke-width="1.5" stroke-miterlimit="10" stroke-linecap="round" stroke-linejoin="round"/>
<mask id="mask21_33_2043" style="mask-type:luminance" maskUnits="userSpaceOnUse" x="28" y="14" width="11" height="10">
<path d="M29.6307 18.5075L31.4847 15.4458L37.9354 19.3518L36.0814 22.4136L29.6307 18.5075Z" fill="white" stroke="white" stroke-width="1.5"/>
</mask>
<g mask="url(#mask21_33_2043)">
<path d="M31.1912 19.0745L31.3168 18.8761L31.4382 18.7317L31.6065 18.5743L31.7131 18.493L31.8185 18.4239L32.0299 18.3125L32.2758 18.2204L32.5322 18.1606L32.8291 18.1315L33.1225 18.1419L33.4014 18.1869L33.6544 18.2579L33.9328 18.3713L34.2174 18.53L34.4743 18.717L34.7393 18.9646L34.9919 19.2722L35.1801 19.5711L35.3515 19.9341L35.4888 20.3635L35.5729 20.86L35.5857 21.3559L35.5361 21.8232L35.4323 22.2711L35.2592 22.7464" stroke="#C69152" stroke-width="1.5" stroke-miterlimit="10" stroke-linecap="round" stroke-linejoin="round"/>
</g>
<mask id="mask22_33_2043" style="mask-type:luminance" maskUnits="userSpaceOnUse" x="33" y="21" width="4" height="3">
<mask id="path-71-inside-3_33_2043" fill="white">
<path d="M33.3226 22.3608L33.6795 21.7714L36.3325 23.3779L35.9757 23.9672L33.3226 22.3608Z"/>
</mask>
<path d="M33.3226 22.3608L33.6795 21.7714L36.3325 23.3779L35.9757 23.9672L33.3226 22.3608Z" fill="white"/>
<path d="M33.3226 22.3608L32.0395 21.5838L31.2626 22.8669L32.5457 23.6439L33.3226 22.3608ZM33.6795 21.7714L34.4564 20.4883L33.1733 19.7114L32.3964 20.9945L33.6795 21.7714ZM36.3325 23.3779L37.6156 24.1548L38.3926 22.8717L37.1095 22.0948L36.3325 23.3779ZM35.9757 23.9672L35.1987 25.2503L36.4818 26.0273L37.2588 24.7442L35.9757 23.9672ZM34.6057 23.1377L34.9626 22.5484L32.3964 20.9945L32.0395 21.5838L34.6057 23.1377ZM32.9025 23.0545L35.5556 24.661L37.1095 22.0948L34.4564 20.4883L32.9025 23.0545ZM35.0494 22.601L34.6926 23.1903L37.2588 24.7442L37.6156 24.1548L35.0494 22.601ZM36.7526 22.6841L34.0996 21.0777L32.5457 23.6439L35.1987 25.2503L36.7526 22.6841Z" fill="white" mask="url(#path-71-inside-3_33_2043)"/>
</mask>
<g mask="url(#mask22_33_2043)">
<path d="M35.2543 22.7477L34.9457 23.3238" stroke="#C69152" stroke-width="1.5" stroke-miterlimit="10" stroke-linecap="round" stroke-linejoin="round"/>
</g>
<mask id="mask23_33_2043" style="mask-type:luminance" maskUnits="userSpaceOnUse" x="28" y="20" width="9" height="9">
<path d="M29.1086 25.128L31.091 21.8541L35.1274 24.2983L33.145 27.5722L29.1086 25.128Z" fill="white" stroke="white" stroke-width="1.5"/>
</mask>
<g mask="url(#mask23_33_2043)">
<path d="M34.9341 23.3365L34.7796 23.5733L34.4133 24.0076L33.943 24.436L33.4291 24.7926L32.9031 25.0688L32.3283 25.2894L31.7555 25.4375L31.0895 25.5306L30.3453 25.542L29.6123 25.4618L28.9105 25.2999L28.279 25.0799" stroke="#C69152" stroke-width="1.5" stroke-miterlimit="10" stroke-linecap="round" stroke-linejoin="round"/>
</g>
<mask id="mask24_33_2043" style="mask-type:luminance" maskUnits="userSpaceOnUse" x="27" y="23" width="3" height="3">
<mask id="path-76-inside-4_33_2043" fill="white">
<path d="M27.3552 25.3829L28.6106 23.3096L29.1734 23.6504L27.918 25.7237L27.3552 25.3829Z"/>
</mask>
<path d="M27.3552 25.3829L28.6106 23.3096L29.1734 23.6504L27.918 25.7237L27.3552 25.3829Z" fill="white"/>
<path d="M27.3552 25.3829L26.0721 24.606L25.2951 25.8891L26.5782 26.666L27.3552 25.3829ZM28.6106 23.3096L29.3875 22.0265L28.1044 21.2496L27.3275 22.5327L28.6106 23.3096ZM29.1734 23.6504L30.4565 24.4274L31.2335 23.1443L29.9504 22.3673L29.1734 23.6504ZM27.918 25.7237L27.1411 27.0068L28.4242 27.7838L29.2011 26.5007L27.918 25.7237ZM28.6383 26.1599L29.8937 24.0866L27.3275 22.5327L26.0721 24.606L28.6383 26.1599ZM27.8336 24.5927L28.3965 24.9335L29.9504 22.3673L29.3875 22.0265L27.8336 24.5927ZM27.8903 22.8735L26.6349 24.9468L29.2011 26.5007L30.4565 24.4274L27.8903 22.8735ZM28.695 24.4406L28.1321 24.0998L26.5782 26.666L27.1411 27.0068L28.695 24.4406Z" fill="white" mask="url(#path-76-inside-4_33_2043)"/>
</mask>
<g mask="url(#mask24_33_2043)">
<path d="M28.2789 25.0799L27.7162 24.8134" stroke="#C69152" stroke-width="1.5" stroke-miterlimit="10" stroke-linecap="round" stroke-linejoin="round"/>
</g>
<defs>
<linearGradient id="paint0_linear_33_2043" x1="81.0261" y1="70.7162" x2="29.3742" y2="10.0026" gradientUnits="userSpaceOnUse">
<stop stop-color="#B96A21"/>
<stop offset="1" stop-color="#D4AC7C"/>
</linearGradient>
</defs>
</svg>
